<svg xmlns="http://www.w3.org/2000/svg" width="173.207" height="200" viewBox="0 0 173.207 199.99982" preserveAspectRatio="xMidYMid"><path fill="#673ab8" d="M0 50L86.603 0l86.604 50v100l-86.604 50L0 150z"/><path d="M23.59 149.173c11.512 14.737 48.101 3.508 82.645-23.48 34.543-26.988 54.29-59.774 42.776-74.51-11.513-14.737-48.102-3.508-82.645 23.48-34.543 26.989-54.29 59.774-42.777 74.51zm4.918-3.842c-3.819-4.887-2.15-14.481 5.124-26.56 7.66-12.717 20.664-26.757 36.577-39.19 15.913-12.432 32.68-21.653 46.874-26.008 13.48-4.137 23.192-3.435 27.01 1.453 3.818 4.887 2.15 14.48-5.124 26.558-7.66 12.718-20.664 26.758-36.577 39.19-15.913 12.433-32.681 21.654-46.875 26.01-13.479 4.136-23.191 3.434-27.01-1.453z" fill="#fff"/><path d="M149.011 149.173c11.514-14.736-8.233-47.521-42.776-74.51-34.544-26.988-71.133-38.217-82.646-23.48-11.513 14.736 8.234 47.522 42.777 74.51 34.543 26.988 71.132 38.217 82.645 23.48zm-4.918-3.842c-3.818 4.887-13.53 5.59-27.01 1.453-14.193-4.356-30.961-13.577-46.874-26.01-15.913-12.432-28.917-26.472-36.577-39.19-7.274-12.077-8.943-21.671-5.124-26.558 3.818-4.888 13.53-5.59 27.01-1.453 14.193 4.355 30.96 13.576 46.874 26.009 15.913 12.432 28.916 26.472 36.577 39.19 7.274 12.078 8.942 21.672 5.124 26.559z" fill="#fff"/><path d="M86.3 113.442c7.326 0 13.264-5.939 13.264-13.264 0-7.325-5.938-13.263-13.264-13.263-7.325 0-13.263 5.938-13.263 13.263s5.938 13.264 13.263 13.264z" fill="#fff"/></svg>