<svg xmlns="http://www.w3.org/2000/svg" width="171" height="276" viewBox="0 0 171 276">
    <path fill="#FFF" stroke="#000" stroke-width="14"
          d="M85.5 267.775c42.176 0 77.368-57.936 77.368-129.4S127.676 8.975 85.5 8.975 8.132 66.91 8.132 138.375s35.192 129.4 77.368 129.4z"/>
    <path fill="none" stroke="#FB090B" stroke-width="5"
          d="M85.25 267.4c42.176 0 77.368-57.936 77.368-129.4S127.426 8.6 85.25 8.6 7.882 66.535 7.882 138 43.074 267.4 85.25 267.4z"/>
    <path d="M72.233 209.5V68.833H59.267V204.5z"/>
    <path fill="#FB090B" d="M59.233 204.5V68.833l-12.966 8V199.5z"/>
    <path d="M46.233 199.5V76.833l-12.966 10V189.5z"/>
    <path fill="#FB090B" d="M33.233 189.5V86.833l-12.966 20V169.5z"/>
    <path d="M20.233 171.5v-67.667l-5.966 15V159.5z"/>
    <path fill="none" stroke="#000" stroke-width="5" stroke-linecap="square"
          d="M110.25 71.75V204.5M128.25 81.25V195M87.775 146.5h67.85M87.775 129.025h67.85"/>
    <path fill="#FB090B"
          d="M158.583 131.483h-32.85v-51.65l-12.966-8v59.65H85.233v-66.65l-12.966 2V209.5h12.966v-65.051h27.534V204.5l12.966-5v-55.051h32.85z"/>
    <path fill="none" stroke="#000" stroke-width="5" stroke-linecap="square" d="M87.75 66.75v143"/>
    <circle fill="none" stroke="#000" stroke-width="5" cx="85.25" cy="138" r="72.125"/>
    <path d="M48.958 213.971l.662.239c4.469 1.616 6.422-.059 7.098-1.618l3.807 1.377-7.727 21.365-4.634-1.676 5.322-14.715-5.594-2.023 1.066-2.949zM70.889 225.699c-2.088-.316-2.947-1.935-2.746-3.263.249-1.646 1.569-2.611 3.762-2.279 1.566.237 2.691 1.507 2.433 3.216-.244 1.613-1.535 2.615-3.449 2.326zm7.517 7.966c.44-2.911-.667-4.535-2.871-5.969 2.127-.649 3.247-2.163 3.539-4.093.469-3.101-1.829-6.264-6.945-7.038-4.315-.653-8.041 1.146-8.62 4.975-.316 2.088.513 3.67 2.328 4.851-3.998 1.014-4.448 3.988-4.62 5.127-.464 3.069 1.159 7.166 7.528 8.129 6.542.99 9.23-3.134 9.661-5.982zm-5.04-.568c-.235 1.55-1.511 3.396-4.051 3.012-2.228-.337-3.37-1.966-3.044-4.118.369-2.436 2.232-3.222 4.007-2.954 2.714.411 3.327 2.478 3.088 4.06zM87.767 225.014c-.27-3.253 1.963-4.016 3.226-4.121 2.526-.209 3.886 1.283 4.1 3.866.222 2.679-1.58 3.952-3.298 4.094-1.86.155-3.745-.427-4.028-3.839zm-3.597 10.284c.72 3.568 3.957 5.548 8.201 5.196 4.49-.373 8.815-3.589 8.088-12.358-.265-3.189-1.106-11.628-9.735-10.913-4.876.404-8.275 3.287-7.814 8.836.314 3.795 3.358 6.85 8.129 6.454 1.684-.14 3.582-.682 4.577-2.306l.075.058c.359 4.754-1.546 6.486-3.581 6.654-1.508.125-2.651-.455-3.062-1.994l-.002-.032-4.876.405zM108.765 221.591c-1.054-3.089.925-4.373 2.125-4.782 2.399-.819 4.082.298 4.918 2.75.868 2.544-.569 4.218-2.202 4.775-1.765.603-3.735.497-4.841-2.743zm-.983 10.85c1.567 3.286 5.189 4.417 9.22 3.042 4.264-1.455 7.675-5.628 4.833-13.957-1.033-3.028-3.905-11.009-12.1-8.212-4.631 1.58-7.225 5.204-5.427 10.474 1.229 3.604 4.926 5.825 9.457 4.279 1.599-.545 3.307-1.534 3.877-3.352l.087.038c1.507 4.524.081 6.667-1.851 7.327-1.433.489-2.683.205-3.456-1.188l-.01-.03-4.63 1.579zM86.46 29.747c-6.948.115-13.059 5.579-12.949 12.214.109 6.589 6.346 11.85 13.344 11.734 3.449-.057 6.679-1.292 8.944-3.42l3.503 3.215c-3.152 2.916-7.572 4.716-12.421 4.796-9.997.165-18.317-7.106-18.468-16.24-.151-9.134 7.774-16.72 17.971-16.888 4.849-.08 9.225 1.484 12.423 4.386l-3.395 3.329c-2.334-2.054-5.453-3.184-8.952-3.126zM107.25 31l-8 27.875 4 1 5-16 4 19h1.875l5.125-12L125.375 69l5.75 4-9-31-3.625-2.125-3.875 10.5-3.5-17.375zM70.875 59l-7.75-28-6.75 3.875-19.125 39 7.75-5 5-10.125 13.75-5.25 2 6.75L70.875 59zM52.5 52.75L60 37.625l2.625 11.125-10.125 4z"/>
</svg>