<svg xmlns="http://www.w3.org/2000/svg" width="60" height="60" viewBox="0 0 60 60">
    <title>Google +_Color</title>
    <g fill="none" fill-rule="evenodd">
        <path d="M0 30C0 13.431 13.431 0 30 0c16.569 0 30 13.431 30 30 0 16.569-13.431 30-30 30C13.431 60 0 46.569 0 30z"
              fill="#dc4e41"/>
        <path d="M24.545 29.143h9.014c.082.475.15.95.15 1.574 0 5.429-3.654 9.283-9.164 9.283C19.268 40 15 35.752 15 30.5s4.268-9.5 9.545-9.5c2.578 0 4.732.936 6.396 2.484l-2.591 2.483c-.71-.678-1.95-1.466-3.805-1.466-3.259 0-5.918 2.688-5.918 5.999 0 3.311 2.66 5.999 5.918 5.999 3.778 0 5.196-2.701 5.414-4.099h-5.414zM45 29.143v2.714h-2.727v2.714h-2.728v-2.714h-2.727v-2.714h2.727v-2.714h2.728v2.714z"
              fill="#fff"/>
        <path d="m 45,29.142857 v 2.714286 h -2.727273 v 2.714286 h -2.727273 v -2.714286 h -2.727272 v -2.714286 h 2.727272 v -2.714286 h 2.727273 v 2.714286 z"
              fill="#fff"/>
    </g>
</svg>