<svg width="60" height="60" viewBox="0 0 60 60" xmlns="http://www.w3.org/2000/svg">
    <title>Medium_Color</title>
    <g fill="none" fill-rule="evenodd">
        <path d="M0 30C0 13.431 13.431 0 30 0c16.569 0 30 13.431 30 30 0 16.569-13.431 30-30 30C13.431 60 0 46.569 0 30z"
              fill="#FFF"/>
        <path d="M35.277 17.03c-.152-.077-.277 0-.277.172v21.091l9.17 4.618c.456.23.83-.002.83-.517V22.091a.267.267 0 0 0-.147-.239l-9.576-4.822"
              fill="#32FC8D"/>
        <path d="M25 33.034l9.885-15.876a.35.35 0 0 1 .441-.124l9.549 4.718a.223.223 0 0 1 .091.318L35.048 38 25 33.034"
              fill="#0BE370"/>
        <path d="M15.65 17.137c-.625-.307-.836-.08-.47.505l9.577 15.318L35 38 24.824 21.725a.44.44 0 0 0-.18-.162l-8.995-4.426"
              fill="#14C767"/>
        <path d="M25 42.391c0 .517-.374.75-.83.52l-8.616-4.357c-.305-.155-.554-.562-.554-.907V17.406c0-.345.25-.5.554-.347l9.323 4.716a.226.226 0 0 1 .123.201v20.415"
              fill="#00AB6C"/>
    </g>
</svg>